<svg width="29" height="28" viewBox="0 0 29 28" fill="none" xmlns="http://www.w3.org/2000/svg">
<path d="M23.5 8.99927H22C22.1613 8.46443 22.509 7.40784 22.5 6.84927C22.5 4.72627 20.473 2.99927 18.35 2.99927C16.5658 2.99927 15.3745 4.62947 14.6056 6.39277C13.8477 4.72627 12.5959 2.99927 10.65 2.99927C8.527 2.99927 6.5 4.87627 6.5 6.99927C6.5 7.65487 6.857 8.54717 7 8.99927H5.5C4.2867 8.99927 3.5 9.48597 3.5 10.6993V12.8993C3.5 14.1126 4.4867 15.0993 5.7 15.0993V22.7993C5.7 24.0126 6.6867 24.9993 7.9 24.9993H21.1C22.3133 24.9993 23.5 24.2126 23.5 22.9993V14.9993C24.7133 14.9993 25.5 14.1126 25.5 12.8993V10.6993C25.5 9.48597 24.7133 8.99927 23.5 8.99927ZM18.5 4.99927C19.4097 4.99927 20.5 6.08957 20.5 6.99927C20.5 8.64927 19.4114 8.99927 19 8.99927H15.5C16.0621 7.26567 17.7025 4.99927 18.5 4.99927ZM8.5 6.99927C8.5 6.08957 9.7403 4.99927 10.65 4.99927C11.6268 4.99927 12.9676 7.37677 13.5 8.99927H10C9.5886 8.99927 8.5 8.64927 8.5 6.99927ZM5.5 10.9993H13.5V12.9993H5.5V10.9993ZM7.5 22.9993V14.9993H13.5V22.9993H7.5ZM21.5 22.9993H15.5V14.9993H21.5V22.9993ZM15.5 12.9993V10.9993H23.5V12.9993H15.5Z" fill="#8D8D8D"/>
</svg>
